<svg width="14" height="14" viewBox="0 0 14 14" fill="none" xmlns="http://www.w3.org/2000/svg">
<path d="M6.99998 3.66668C6.63331 3.66668 6.33331 3.96668 6.33331 4.33334V6.33334H4.33331C3.96665 6.33334 3.66665 6.63334 3.66665 7.00001C3.66665 7.36668 3.96665 7.66668 4.33331 7.66668H6.33331V9.66668C6.33331 10.0333 6.63331 10.3333 6.99998 10.3333C7.36665 10.3333 7.66665 10.0333 7.66665 9.66668V7.66668H9.66665C10.0333 7.66668 10.3333 7.36668 10.3333 7.00001C10.3333 6.63334 10.0333 6.33334 9.66665 6.33334H7.66665V4.33334C7.66665 3.96668 7.36665 3.66668 6.99998 3.66668ZM6.99998 0.333344C3.31998 0.333344 0.333313 3.32001 0.333313 7.00001C0.333313 10.68 3.31998 13.6667 6.99998 13.6667C10.68 13.6667 13.6666 10.68 13.6666 7.00001C13.6666 3.32001 10.68 0.333344 6.99998 0.333344ZM6.99998 12.3333C4.05998 12.3333 1.66665 9.94001 1.66665 7.00001C1.66665 4.06001 4.05998 1.66668 6.99998 1.66668C9.93998 1.66668 12.3333 4.06001 12.3333 7.00001C12.3333 9.94001 9.93998 12.3333 6.99998 12.3333Z" fill="#9873FF"/>
</svg>
